<svg width="63" height="63" viewBox="0 0 63 63" fill="none" xmlns="http://www.w3.org/2000/svg">
<path d="M0.541992 2.57137C0.541992 1.43844 1.46041 0.52002 2.59334 0.52002H19.4868C20.6198 0.52002 21.5382 1.43844 21.5382 2.57137V16.5688C21.5382 17.7018 20.6198 18.6202 19.4868 18.6202H2.59334C1.46041 18.6202 0.541992 17.7018 0.541992 16.5688V2.57137Z" fill="#10B981"/>
<path d="M7.6086 47.7556C7.2866 47.6763 6.95018 47.6763 6.62817 47.7556L2.10322 48.8689C1.18642 49.0945 0.541992 49.9167 0.541992 50.8609V60.0094C0.541992 61.1424 1.46041 62.0608 2.59334 62.0608H19.4868C20.6198 62.0608 21.5382 61.1424 21.5382 60.0094V49.4514C21.5382 47.8466 19.7784 46.8633 18.4117 47.7044L15.9973 49.1903C15.5294 49.4783 14.9654 49.5665 14.4319 49.4352L7.6086 47.7556Z" fill="#10B981"/>
<path d="M0.541992 42.9072C0.541992 44.2387 1.79063 45.2173 3.08347 44.8992L6.6282 44.027C6.95019 43.9478 7.28659 43.9478 7.60857 44.027L13.825 45.557C14.3585 45.6883 14.9224 45.6001 15.3903 45.3122L20.5619 42.13C21.1686 41.7566 21.5382 41.0953 21.5382 40.3829V24.7745C21.5382 23.6416 20.6198 22.7231 19.4868 22.7231H2.59334C1.46041 22.7231 0.541992 23.6416 0.541992 24.7745V42.9072ZM-nan -nanL11.0401 29.4805C13.1023 29.4805 14.7808 31.159 14.7808 33.2212C14.7808 35.2835 13.1023 36.9619 11.0401 36.9619C8.97788 36.9619 7.29939 35.2835 7.29939 33.2212C7.29939 31.159 8.97788 29.4805 11.0401 29.4805L-nan -nanZ" fill="#10B981"/>
<path d="M25.8804 43.0514C25.8804 41.9184 26.7988 41 27.9317 41H60.2707C61.4036 41 62.3221 41.9184 62.3221 43.0514V59.9448C62.3221 61.0778 61.4036 61.9962 60.2707 61.9962H27.9317C26.7988 61.9962 25.8804 61.0778 25.8804 59.9448V43.0514Z" fill="#10B981"/>
<path d="M43.8619 20.7927C45.528 20.7927 46.8786 19.442 46.8786 17.776C46.8786 16.1099 45.528 14.7593 43.8619 14.7593C42.1958 14.7593 40.8452 16.1099 40.8452 17.776C40.8452 19.442 42.1958 20.7927 43.8619 20.7927Z" fill="#10B981"/>
<path d="M27.6925 0.52002C26.5595 0.52002 25.6411 1.43844 25.6411 2.57137V34.9103C25.6411 36.0433 26.5595 36.9617 27.6925 36.9617H32.2778C33.4108 36.9617 34.3292 36.0433 34.3292 34.9103V29.6058C34.3292 27.2167 35.2845 25.047 36.8334 23.4578C37.716 22.5522 37.9631 21.0814 37.5595 19.8829C36.1978 15.8392 39.1081 11.1388 43.862 11.1388C48.6188 11.1388 51.5244 15.8407 50.1641 19.8827C49.7607 21.0813 50.0079 22.5522 50.8905 23.4578C52.4394 25.047 53.3947 27.2167 53.3947 29.6058V34.9103C53.3947 36.0433 54.3131 36.9617 55.4461 36.9617H60.0314C61.1644 36.9617 62.0828 36.0433 62.0828 34.9103V2.57137C62.0828 1.43844 61.1644 0.52002 60.0314 0.52002H27.6925Z" fill="#10B981"/>
<path d="M37.9492 29.6057V36.9616H49.7747V29.6057C49.7747 26.7422 47.4446 24.4121 44.5811 24.4121H43.1428C40.2793 24.4121 37.9492 26.7422 37.9492 29.6057Z" fill="#10B981"/>
</svg>
